HIERARCHY
ROOT ui
{
	 OFFSET 0 0 0
	 CHANNELS 3 XPosition YPosition Z Position
	 EndSite
	 {
	 OFFSET 0 -1 0
	 }
}
ROOT li
{
	 OFFSET 0 0 0
	 CHANNELS 3 XPosition YPosition Z Position
	 EndSite
	 {
	 OFFSET 0 -1 0
	 }
}
ROOT ul
{
	 OFFSET 0 0 0
	 CHANNELS 3 XPosition YPosition Z Position
	 EndSite
	 {
	 OFFSET 0 -1 0
	 }
}
ROOT ll
{
	 OFFSET 0 0 0
	 CHANNELS 3 XPosition YPosition Z Position
	 EndSite
	 {
	 OFFSET 0 -1 0
	 }
}
ROOT tt
{
	 OFFSET 0 0 0
	 CHANNELS 3 XPosition YPosition Z Position
	 EndSite
	 {
	 OFFSET 0 -1 0
	 }
}
ROOT tb
{
	 OFFSET 0 0 0
	 CHANNELS 3 XPosition YPosition Z Position
	 EndSite
	 {
	 OFFSET 0 -1 0
	 }
}
ROOT td
{
	 OFFSET 0 0 0
	 CHANNELS 3 XPosition YPosition Z Position
	 EndSite
	 {
	 OFFSET 0 -1 0
	 }
}
ROOT v
{
	 OFFSET 0 0 0
	 CHANNELS 3 XPosition YPosition Z Position
	 EndSite
	 {
	 OFFSET 0 -1 0
	 }
}
ROOT bn
{
	 OFFSET 0 0 0
	 CHANNELS 3 XPosition YPosition Z Position
	 EndSite
	 {
	 OFFSET 0 -1 0
	 }
}
MOTION
Frames: 13
Frame Time: 0.002
-0.00532041597366333	0.0033022310733795165	0		0.626202880859375	-2.510287841796875	0		-0.9296626586914063	0.3201798095703125	0		-0.41723696899414064	-2.79705322265625	0		1.9734222412109375	-1.0520093994140625	0		3.339222412109375	-0.4810103759765625	0		4.594046875	-0.16272543334960937	0		5.9796005859375	0.34264288330078124	0		-0.2609833068847656	5.9087119140625	0		
-0.004411931037902832	-0.004604328155517578	0		0.588376220703125	-2.4997255859375	0		-0.929666748046875	0.32026559448242187	0		-0.4562100830078125	-2.79949951171875	0		1.958411865234375	-1.0546884765625	0		3.360444091796875	-0.4630850830078125	0		4.58795947265625	-0.17045625305175782	0		5.97175830078125	0.34325949096679687	0		-0.275229248046875	5.8979765625	0		
-0.00945660400390625	5.640649795532227E-4	0		0.6043616943359374	-2.493798583984375	0		-0.92977294921875	0.320368408203125	0		-0.4253756103515625	-2.806755615234375	0		1.958316650390625	-1.054562744140625	0		3.357180419921875	-0.476912109375	0		4.5947744140625	-0.17739114379882812	0		5.96439404296875	0.3108677368164062	0		-0.30944769287109375	5.89248291015625	0		
-0.01270010757446289	-0.0022849059104919434	0		0.5730264892578125	-2.50332177734375	0		-0.9920812377929688	0.31221560668945314	0		-0.48463995361328127	-2.8099462890625	0		1.9581031494140626	-1.0544561767578124	0		3.337064697265625	-0.468578125	0		4.5766484375	-0.17008627319335937	0		5.96368994140625	0.34390777587890625	0		-0.3096290283203125	5.89260009765625	0		
-9.877809882164002E-4	-3.043420016765594E-4	0		0.6026950073242188	-2.5015625	0		-0.9842928466796875	0.3202593994140625	0		-0.4720811462402344	-2.81696875	0		1.965891845703125	-1.0444627685546874	0		3.365498046875	-0.4898525695800781	0		4.587134765625	-0.18717082214355468	0		5.9690654296875	0.32128985595703125	0		-0.2786180419921875	5.91136181640625	0		
-0.0063471879959106445	0.0038818039894104005	0		0.5584776000976562	-2.47893603515625	0		-0.995583740234375	0.32954428100585936	0		-0.4644524841308594	-2.80692236328125	0		1.9975113525390624	-1.03976904296875	0		3.354466064453125	-0.45669537353515627	0		4.5848994140625	-0.1721536865234375	0		5.96317626953125	0.3438605041503906	0		-0.27984173583984373	5.9125087890625	0		
-0.0068436250686645505	0.004016212940216065	0		0.61462939453125	-2.50049609375	0		-0.9261192016601563	0.3248923034667969	0		-0.4681090087890625	-2.81073388671875	0		1.9589991455078124	-1.0372667236328126	0		3.353738525390625	-0.47469491577148437	0		4.5913125	-0.1792861328125	0		5.96701611328125	0.32625344848632815	0		-0.26213717651367185	5.90944189453125	0		
-0.013587132453918457	-0.00977060604095459	0		0.5879619140625	-2.497078369140625	0		-0.9317279052734375	0.3211394958496094	0		-0.42903399658203123	-2.82804248046875	0		1.9912593994140626	-1.046615966796875	0		3.359254638671875	-0.4647960510253906	0		4.585630859375	-0.18731829833984376	0		5.95876416015625	0.32792550659179687	0		-0.2765452270507813	5.8987626953125	0		
-0.012106088638305664	0.0013527849912643433	0		0.587162109375	-2.496966552734375	0		-0.996365234375	0.32110565185546874	0		-0.4987773742675781	-2.821047607421875	0		1.9576566162109375	-1.0371961669921874	0		3.3644814453125	-0.47292227172851564	0		4.58580322265625	-0.20145843505859376	0		5.9582978515625	0.3275547790527344	0		-0.2967779846191406	5.90416455078125	0		
-0.008777790069580078	0.004459516048431396	0		0.5742955322265625	-2.495709228515625	0		-0.9239479370117187	0.3294526672363281	0		-0.4178408203125	-2.834841064453125	0		1.9978988037109375	-1.03566845703125	0		3.355981689453125	-0.45290545654296877	0		4.58732177734375	-0.18164558410644532	0		5.96702685546875	0.31991781616210935	0		-0.28097210693359376	5.913146484375	0		
0.06745390319824218	0.0026928279399871828	0		0.6153632202148438	-2.495098388671875	0		-0.924673828125	0.32968453979492185	0		-0.48875466918945315	-2.8298037109375	0		1.9393504638671875	-1.0119614868164062	0		3.365893798828125	-0.4781308898925781	0		4.5883876953125	-0.19585714721679687	0		5.95725	0.32659503173828125	0		-0.2340583953857422	5.93076123046875	0		
-0.0143462495803833	0.00183988094329834	0		0.5785117797851562	-2.4835439453125	0		-0.9294769897460937	0.3259783020019531	0		-0.44767581176757815	-2.82210546875	0		1.974421630859375	-1.0173894653320312	0		3.368254150390625	-0.4632770690917969	0		4.57659033203125	-0.19593292236328125	0		5.96088134765625	0.30860751342773435	0		-0.24749655151367186	5.91910791015625	0		
0.05574444961547852	-0.006851432800292968	0		0.6092905883789063	-2.499809326171875	0		-0.9353034057617188	0.3222962646484375	0		-0.4639475402832031	-2.839706298828125	0		1.97656298828125	-1.0144234008789061	0		3.364224365234375	-0.47835794067382814	0		4.58676611328125	-0.19629165649414063	0		5.95316845703125	0.3082163391113281	0		-0.2828324279785156	5.9157333984375	0		
